<svg id="Livello_1" data-name="Livello 1" xmlns="http://www.w3.org/2000/svg" viewBox="0 0 87.45 87.45"><defs><style>.cls-1{fill:#d2401e;}.cls-2{fill:#fff;}</style></defs><title>eyes</title><circle class="cls-1" cx="43.73" cy="43.73" r="43.73"/><path class="cls-2" d="M160.91,372.74c-7.46,0-13.6-5.9-15.35-8.18l-.45-.6.5-.68c.25-.33,6.32-8.24,15.07-8.45,5.24-.12,10.13,2.55,14.62,7.94l.5.6-.46.63c-4.23,5.75-9,8.69-14.3,8.74ZM147.65,364c2,2.26,7.24,6.79,13.26,6.79H161c4.41,0,8.52-2.49,12.23-7.29-3.93-4.5-8.15-6.72-12.52-6.62C154.19,357,149.14,362.22,147.65,364Zm-1.24-.06h0Z" transform="translate(-116.73 -320.85)"/><path class="cls-2" d="M160.73,370.22a6.34,6.34,0,1,1,6.34-6.34A6.34,6.34,0,0,1,160.73,370.22Zm0-10.67a4.34,4.34,0,1,0,4.34,4.33A4.33,4.33,0,0,0,160.73,359.55Z" transform="translate(-116.73 -320.85)"/><path class="cls-2" d="M162.06,363.79a1.45,1.45,0,1,1,1.45-1.45A1.45,1.45,0,0,1,162.06,363.79Zm0-2a.56.56,0,1,0,.56.55A.55.55,0,0,0,162.06,361.79Z" transform="translate(-116.73 -320.85)"/></svg>